<svg width="125" height="30" viewBox="0 0 145 40" fill="none" xmlns="http://www.w3.org/2000/svg">
<rect width="145" height="40" rx="20" fill="white"/>
<path d="M121 8C114.376 8 109 13.376 109 20C109 26.624 114.376 32 121 32C127.624 32 133 26.624 133 20C133 13.376 127.624 8 121 8ZM127 21.2H122.2V26H119.8V21.2H115V18.8H119.8V14H122.2V18.8H127V21.2Z" fill="#002CFB"/>
<path d="M19.9834 22.04C19.9834 22.9105 19.6872 23.6214 19.0947 24.1729C18.5068 24.7243 17.7503 25 16.8252 25H13.2363V15.1357H18.999V16.2432H14.4668V19.0664H16.8115C17.7412 19.0664 18.5023 19.3444 19.0947 19.9004C19.6872 20.4518 19.9834 21.165 19.9834 22.04ZM14.4668 23.8926H16.5039C17.2103 23.8926 17.7549 23.7331 18.1377 23.4141C18.5251 23.0905 18.7188 22.6325 18.7188 22.04C18.7188 21.443 18.5251 20.9827 18.1377 20.6592C17.7549 20.3356 17.2103 20.1738 16.5039 20.1738H14.4668V23.8926ZM23.8594 24.1113C24.4199 24.1113 24.8893 23.9382 25.2676 23.5918C25.6504 23.2409 25.8418 22.8102 25.8418 22.2998V21.7188L23.9414 21.835C23.4629 21.8669 23.0915 21.9831 22.8271 22.1836C22.5674 22.3841 22.4375 22.653 22.4375 22.9902C22.4375 23.3275 22.5674 23.5986 22.8271 23.8037C23.0869 24.0088 23.431 24.1113 23.8594 24.1113ZM23.5928 25.123C22.8864 25.123 22.3145 24.9271 21.877 24.5352C21.444 24.1432 21.2275 23.6283 21.2275 22.9902C21.2275 22.3796 21.4508 21.8919 21.8975 21.5273C22.3486 21.1628 22.9844 20.9577 23.8047 20.9121L25.8418 20.7959V20.2012C25.8418 19.7682 25.7051 19.4287 25.4316 19.1826C25.1582 18.9365 24.7754 18.8135 24.2832 18.8135C23.832 18.8135 23.4652 18.9137 23.1826 19.1143C22.9001 19.3102 22.7201 19.5859 22.6426 19.9414H21.4941C21.5352 19.3079 21.8086 18.7884 22.3145 18.3828C22.8249 17.9727 23.4902 17.7676 24.3105 17.7676C25.1445 17.7676 25.8053 17.9772 26.293 18.3965C26.7852 18.8158 27.0312 19.3786 27.0312 20.085V25H25.9033V23.7764H25.876C25.6618 24.182 25.3473 24.5078 24.9326 24.7539C24.5179 25 24.0713 25.123 23.5928 25.123ZM30.5723 21.8623C30.5404 22.2725 30.4948 22.6348 30.4355 22.9492C30.3809 23.2637 30.3011 23.5576 30.1963 23.8311C30.0915 24.1045 29.9616 24.3301 29.8066 24.5078C29.6562 24.681 29.4671 24.8177 29.2393 24.918C29.016 25.0137 28.7562 25.0615 28.46 25.0615C28.2959 25.0615 28.1546 25.0365 28.0361 24.9863V23.9131C28.1455 23.9495 28.2663 23.9678 28.3984 23.9678C28.7311 23.9678 28.9795 23.7878 29.1436 23.4277C29.3076 23.0632 29.4124 22.5322 29.458 21.835L29.7314 17.8906H34.3867V25H33.2109V18.8682H30.791L30.5723 21.8623ZM38.4199 24.1113C38.9805 24.1113 39.4499 23.9382 39.8281 23.5918C40.2109 23.2409 40.4023 22.8102 40.4023 22.2998V21.7188L38.502 21.835C38.0234 21.8669 37.652 21.9831 37.3877 22.1836C37.1279 22.3841 36.998 22.653 36.998 22.9902C36.998 23.3275 37.1279 23.5986 37.3877 23.8037C37.6475 24.0088 37.9915 24.1113 38.4199 24.1113ZM38.1533 25.123C37.4469 25.123 36.875 24.9271 36.4375 24.5352C36.0046 24.1432 35.7881 23.6283 35.7881 22.9902C35.7881 22.3796 36.0114 21.8919 36.458 21.5273C36.9092 21.1628 37.5449 20.9577 38.3652 20.9121L40.4023 20.7959V20.2012C40.4023 19.7682 40.2656 19.4287 39.9922 19.1826C39.7188 18.9365 39.3359 18.8135 38.8438 18.8135C38.3926 18.8135 38.0257 18.9137 37.7432 19.1143C37.4606 19.3102 37.2806 19.5859 37.2031 19.9414H36.0547C36.0957 19.3079 36.3691 18.7884 36.875 18.3828C37.3854 17.9727 38.0508 17.7676 38.8711 17.7676C39.7051 17.7676 40.3659 17.9772 40.8535 18.3965C41.3457 18.8158 41.5918 19.3786 41.5918 20.085V25H40.4639V23.7764H40.4365C40.2223 24.182 39.9079 24.5078 39.4932 24.7539C39.0785 25 38.6318 25.123 38.1533 25.123ZM47.915 25V21.8008H44.4082V25H43.2324V17.8906H44.4082V20.8232H47.915V17.8906H49.0908V25H47.915ZM56.6514 20.0781H55.4756C55.3662 19.709 55.1589 19.4059 54.8535 19.1689C54.5482 18.932 54.1585 18.8135 53.6846 18.8135C53.0648 18.8135 52.568 19.055 52.1943 19.5381C51.8206 20.0166 51.6338 20.6523 51.6338 21.4453C51.6338 22.252 51.8206 22.8923 52.1943 23.3662C52.5726 23.8402 53.0739 24.0771 53.6982 24.0771C54.1631 24.0771 54.5482 23.9678 54.8535 23.749C55.1634 23.5303 55.3753 23.2227 55.4893 22.8262H56.665C56.5465 23.5098 56.2184 24.0635 55.6807 24.4873C55.1429 24.9111 54.4798 25.123 53.6914 25.123C52.6979 25.123 51.9049 24.7926 51.3125 24.1318C50.7201 23.4665 50.4238 22.571 50.4238 21.4453C50.4238 20.3379 50.7201 19.4492 51.3125 18.7793C51.9049 18.1048 52.6934 17.7676 53.6777 17.7676C54.4935 17.7676 55.1634 17.9909 55.6875 18.4375C56.2161 18.8841 56.5374 19.431 56.6514 20.0781ZM59.3994 24.8428C59.249 24.9932 59.0645 25.0684 58.8457 25.0684C58.627 25.0684 58.4424 24.9932 58.292 24.8428C58.1416 24.6924 58.0664 24.5078 58.0664 24.2891C58.0664 24.0703 58.1416 23.8857 58.292 23.7354C58.4424 23.585 58.627 23.5098 58.8457 23.5098C59.0645 23.5098 59.249 23.585 59.3994 23.7354C59.5498 23.8857 59.625 24.0703 59.625 24.2891C59.625 24.5078 59.5498 24.6924 59.3994 24.8428ZM59.3994 19.8115C59.249 19.9619 59.0645 20.0371 58.8457 20.0371C58.627 20.0371 58.4424 19.9619 58.292 19.8115C58.1416 19.6611 58.0664 19.4766 58.0664 19.2578C58.0664 19.0391 58.1416 18.8545 58.292 18.7041C58.4424 18.5537 58.627 18.4785 58.8457 18.4785C59.0645 18.4785 59.249 18.5537 59.3994 18.7041C59.5498 18.8545 59.625 19.0391 59.625 19.2578C59.625 19.4766 59.5498 19.6611 59.3994 19.8115Z" fill="#899CB1"/>
<path d="M64.1504 18.0273C64.1504 17.1387 64.4694 16.4049 65.1074 15.8262C65.75 15.2428 66.5612 14.9512 67.541 14.9512C68.4798 14.9512 69.2614 15.2155 69.8857 15.7441C70.5101 16.2728 70.8223 16.929 70.8223 17.7129C70.8223 18.2643 70.6696 18.7884 70.3643 19.2852C70.0589 19.7773 69.5257 20.4131 68.7646 21.1924L66.2969 23.6738V23.708H70.9795V25H64.2324V23.9609L67.7939 20.3311C68.3955 19.7021 68.7988 19.2191 69.0039 18.8818C69.209 18.54 69.3115 18.1755 69.3115 17.7881C69.3115 17.3506 69.1361 16.9792 68.7852 16.6738C68.4342 16.3685 68.0036 16.2158 67.4932 16.2158C66.9554 16.2158 66.5042 16.389 66.1396 16.7354C65.7796 17.0771 65.5996 17.5055 65.5996 18.0205V18.041H64.1504V18.0273ZM72.8867 25L77.2686 16.4619V16.4277H72.0664V15.1357H78.7793V16.4619L74.4932 25H72.8867ZM80.0508 18.0273C80.0508 17.1387 80.3698 16.4049 81.0078 15.8262C81.6504 15.2428 82.4616 14.9512 83.4414 14.9512C84.3802 14.9512 85.1618 15.2155 85.7861 15.7441C86.4105 16.2728 86.7227 16.929 86.7227 17.7129C86.7227 18.2643 86.57 18.7884 86.2646 19.2852C85.9593 19.7773 85.4261 20.4131 84.665 21.1924L82.1973 23.6738V23.708H86.8799V25H80.1328V23.9609L83.6943 20.3311C84.2959 19.7021 84.6992 19.2191 84.9043 18.8818C85.1094 18.54 85.2119 18.1755 85.2119 17.7881C85.2119 17.3506 85.0365 16.9792 84.6855 16.6738C84.3346 16.3685 83.904 16.2158 83.3936 16.2158C82.8558 16.2158 82.4046 16.389 82.04 16.7354C81.68 17.0771 81.5 17.5055 81.5 18.0205V18.041H80.0508V18.0273ZM93.668 16.4277V20.0234H95.1035C95.7552 20.0234 96.2497 19.8639 96.5869 19.5449C96.9287 19.2259 97.0996 18.7839 97.0996 18.2188C97.0996 17.6582 96.931 17.2207 96.5938 16.9062C96.2565 16.5872 95.762 16.4277 95.1104 16.4277H93.668ZM96.4502 23.5166H93.668V25H92.1367V23.5166H90.8174V22.4639H92.1367V21.2607H90.8174V20.0303H92.1367V15.1357H95.5342C96.473 15.1357 97.2295 15.4251 97.8037 16.0039C98.3779 16.5781 98.665 17.3141 98.665 18.2119C98.665 19.1051 98.3711 19.8389 97.7832 20.4131C97.1999 20.9827 96.4342 21.2676 95.4863 21.2676H93.668V22.4639H96.4502V23.5166Z" fill="#122945"/>
</svg>
